<svg width="18" height="18" viewBox="0 0 18 18" fill="none" xmlns="http://www.w3.org/2000/svg">
<path d="M13.3801 0.317906C11.559 0.208046 10.0106 1.36459 9.141 1.36459C8.2709 1.36459 6.93914 0.373266 5.49877 0.399976C3.62405 0.427866 1.88452 1.50133 0.933172 3.20863C-1.02358 6.62405 0.416782 11.6903 2.31962 14.472C3.24369 15.8482 4.35733 17.3635 5.82474 17.3091C7.2112 17.254 7.7546 16.3999 9.4399 16.3999C11.124 16.3999 11.6135 17.3091 13.0811 17.2815C14.6031 17.254 15.5546 15.9047 16.4787 14.5271C17.5387 12.9583 17.9727 11.4435 18 11.3604C17.9727 11.3328 15.0652 10.2033 15.0382 6.81625C15.0108 3.98023 17.321 2.63125 17.4297 2.54759C16.1251 0.593586 14.0867 0.373266 13.3801 0.317906Z" fill="black"/>
</svg>
