<svg width="176" height="52" viewBox="0 0 176 52" fill="none" xmlns="http://www.w3.org/2000/svg">
<g clip-path="url(#clip0_1_4868)">
<path d="M16 16.8105C29.3333 16.8105 32 19.4772 32 32.8105C32 46.1439 29.3333 48.8105 16 48.8105C2.66667 48.8105 0 46.1439 0 32.8105C0 19.4772 2.66667 16.8105 16 16.8105Z" fill="url(#paint0_linear_1_4868)"/>
<path fill-rule="evenodd" clip-rule="evenodd" d="M15.9998 25.1582C18.4921 25.1582 18.7869 25.1678 19.7713 25.2126C20.6812 25.2541 21.1754 25.406 21.5044 25.5338C21.9401 25.7032 22.2509 25.9054 22.5777 26.2318C22.9045 26.5586 23.1067 26.8694 23.2757 27.3051C23.4035 27.6341 23.5554 28.1283 23.5969 29.0382C23.6417 30.0222 23.6513 30.3175 23.6513 32.8097C23.6513 35.302 23.6417 35.5968 23.5969 36.5812C23.5554 37.4911 23.4035 37.9853 23.2757 38.3143C23.1064 38.75 22.9041 39.0608 22.5777 39.3876C22.2509 39.7144 21.9401 39.9166 21.5044 40.0856C21.1754 40.2134 20.6812 40.3653 19.7713 40.4068C18.7873 40.4516 18.4921 40.4612 15.9998 40.4612C13.5076 40.4612 13.2123 40.4516 12.2283 40.4068C11.3184 40.3653 10.8242 40.2134 10.4952 40.0856C10.0595 39.9163 9.74866 39.714 9.42192 39.3876C9.09519 39.0608 8.89286 38.75 8.72392 38.3143C8.59612 37.9853 8.44419 37.4911 8.40272 36.5812C8.35792 35.5972 8.34826 35.302 8.34826 32.8097C8.34826 30.3175 8.35792 30.0226 8.40272 29.0382C8.44419 28.1283 8.59612 27.6341 8.72392 27.3051C8.89326 26.8694 9.09552 26.5586 9.42192 26.2318C9.74866 25.9051 10.0595 25.7028 10.4952 25.5338C10.8242 25.406 11.3184 25.2541 12.2283 25.2126C13.2127 25.1678 13.5076 25.1582 15.9998 25.1582ZM15.9998 23.4766C13.465 23.4766 13.1471 23.4873 12.1516 23.5329C11.1584 23.5781 10.48 23.7359 9.88612 23.9667C9.27226 24.2053 8.75172 24.5243 8.23306 25.0433C7.71439 25.562 7.39499 26.0825 7.15679 26.696C6.92599 27.2899 6.76819 27.9683 6.72299 28.9615C6.67739 29.957 6.66666 30.2749 6.66666 32.8097C6.66666 35.3446 6.67739 35.6624 6.72299 36.6579C6.76819 37.6512 6.92599 38.3295 7.15679 38.9234C7.39539 39.5373 7.71439 40.0578 8.23339 40.5765C8.75246 41.0955 9.27259 41.4145 9.88652 41.6531C10.48 41.8839 11.1587 42.0417 12.152 42.0869C13.1475 42.1325 13.4653 42.1432 16.0002 42.1432C18.535 42.1432 18.8529 42.1325 19.8484 42.0869C20.8416 42.0417 21.5203 41.8839 22.1139 41.6531C22.7277 41.4145 23.2483 41.0955 23.7669 40.5765C24.286 40.0574 24.605 39.5373 24.8435 38.9234C25.0743 38.3299 25.2322 37.6512 25.2774 36.6579C25.3229 35.6624 25.3337 35.3446 25.3337 32.8097C25.3337 30.2749 25.3229 29.957 25.2774 28.9615C25.2322 27.9683 25.0743 27.2896 24.8435 26.696C24.605 26.0822 24.286 25.5616 23.7669 25.043C23.2479 24.5239 22.7277 24.2049 22.1139 23.9664C21.5196 23.7359 20.8413 23.5781 19.848 23.5329C18.8525 23.4873 18.5347 23.4766 15.9998 23.4766ZM15.9998 28.0172C13.3527 28.0172 11.2073 30.163 11.2073 32.8097C11.2073 35.4564 13.3531 37.6022 15.9998 37.6022C18.6465 37.6022 20.7923 35.4564 20.7923 32.8097C20.7923 30.163 18.6469 28.0172 15.9998 28.0172ZM15.9998 35.9206C14.2815 35.9206 12.8889 34.5276 12.8889 32.8097C12.8889 31.0914 14.2819 29.6988 15.9998 29.6988C17.7177 29.6988 19.1107 31.0918 19.1107 32.8097C19.1107 34.528 17.7181 35.9206 15.9998 35.9206ZM22.102 27.8275C22.102 28.446 21.6006 28.9474 20.9821 28.9474C20.3635 28.9474 19.8621 28.446 19.8621 27.8275C19.8621 27.209 20.3635 26.7075 20.9821 26.7075C21.6006 26.7075 22.102 27.209 22.102 27.8275Z" fill="white"/>
</g>
<g clip-path="url(#clip1_1_4868)">
<path d="M60 16.8105C73.3333 16.8105 76 19.4772 76 32.8105C76 46.1439 73.3333 48.8105 60 48.8105C46.6667 48.8105 44 46.1439 44 32.8105C44 19.4772 46.6667 16.8105 60 16.8105Z" fill="url(#paint1_linear_1_4868)"/>
<path d="M51.8612 32.6758C56.5255 30.6436 59.6358 29.3039 61.192 28.6566C65.6354 26.8084 66.5587 26.4874 67.1605 26.4767C67.2929 26.4745 67.5888 26.5073 67.7805 26.6628C67.9423 26.7942 67.9869 26.9716 68.0082 27.0962C68.0295 27.2207 68.0561 27.5043 68.035 27.726C67.7942 30.2559 66.7523 36.3956 66.2223 39.2292C65.998 40.4282 65.5563 40.8302 65.1288 40.8695C64.1996 40.9551 63.4941 40.2555 62.5942 39.6656C61.186 38.7425 60.3904 38.1679 59.0235 37.2671C57.4438 36.2261 58.4679 35.6539 59.3681 34.7188C59.6037 34.4742 63.6976 30.7505 63.7768 30.4127C63.7867 30.3705 63.7959 30.213 63.7023 30.1298C63.6088 30.0467 63.4707 30.0751 63.3711 30.0977C63.2298 30.1298 60.9802 31.6167 56.6222 34.5585C55.9836 34.997 55.4052 35.2106 54.8871 35.1994C54.3158 35.1871 53.2169 34.8764 52.3999 34.6108C51.3979 34.2851 50.6015 34.113 50.6709 33.5598C50.707 33.2716 51.1038 32.977 51.8612 32.6758Z" fill="white"/>
</g>
<g clip-path="url(#clip2_1_4868)">
<path d="M104 16.8105C117.333 16.8105 120 19.4772 120 32.8105C120 46.1439 117.333 48.8105 104 48.8105C90.6667 48.8105 88 46.1439 88 32.8105C88 19.4772 90.6667 16.8105 104 16.8105Z" fill="#FF0000"/>
<path d="M100 38.1433L110 32.8099L100 27.4766V38.1433Z" fill="white"/>
</g>
<g clip-path="url(#clip3_1_4868)">
<path d="M164 44.3661C164 46.855 162.044 48.8105 159.556 48.8105H136.444C133.956 48.8105 132 46.855 132 44.3661V21.255C132 18.7661 133.956 16.8105 136.444 16.8105H159.556C162.044 16.8105 164 18.7661 164 21.255V44.3661Z" fill="#3B5998"/>
<path d="M157.244 33.6999H154.222V45.2554H149.778V33.6999H147.111V30.1443H149.778V28.011C149.778 24.8999 151.111 23.0332 154.756 23.0332H157.778V26.5888H155.733C154.311 26.5888 154.222 27.1221 154.222 28.0999V30.1443H157.778L157.244 33.6999Z" fill="white"/>
</g>
<defs>
<linearGradient id="paint0_linear_1_4868" x1="28.5403" y1="20.5815" x2="3.36279" y2="45.1341" gradientUnits="userSpaceOnUse">
<stop stop-color="#BA00B2"/>
<stop offset="0.5" stop-color="#F40000"/>
<stop offset="1" stop-color="#FFA800"/>
</linearGradient>
<linearGradient id="paint1_linear_1_4868" x1="60" y1="16.8105" x2="60" y2="48.5731" gradientUnits="userSpaceOnUse">
<stop stop-color="#2AABEE"/>
<stop offset="1" stop-color="#229ED9"/>
</linearGradient>
<clipPath id="clip0_1_4868">
<rect width="32" height="32" fill="white" transform="translate(0 16.8105)"/>
</clipPath>
<clipPath id="clip1_1_4868">
<rect width="32" height="32" fill="white" transform="translate(44 16.8105)"/>
</clipPath>
<clipPath id="clip2_1_4868">
<rect width="32" height="32" fill="white" transform="translate(88 16.8105)"/>
</clipPath>
<clipPath id="clip3_1_4868">
<rect width="32" height="32" fill="white" transform="translate(132 16.8105)"/>
</clipPath>
</defs>
</svg>
